<svg width="100%" height="100%" viewBox="0 0 1488 768" fill="none" xmlns="http://www.w3.org/2000/svg">
<g clip-path="url(#clip0_308_4)">
<rect width="1488" height="768" fill="#1E293B"/>
<path d="M1944 383.977C1944 430.257 1938.76 475.247 1928.86 518.531C1869.22 778.691 1640.4 974.44 1364.32 983.585C1357.58 983.804 1350.83 983.962 1344 983.962C1327.58 983.962 1311.3 983.28 1295.25 982.013C986.628 957.199 744 698.891 744 383.977C744 235.716 797.771 99.9652 887.023 -4.73034C913.043 -35.4054 942.221 -63.4498 973.945 -88.3457C1075.88 -168.292 1204.36 -216 1344 -216C1426.65 -216 1505.41 -199.271 1577.03 -169.047C1632.37 -145.722 1683.52 -114.304 1728.91 -76.2021C1738.2 -68.5443 1747.28 -60.4505 1756.06 -52.1343C1761.83 -46.7209 1767.45 -41.1729 1773.01 -35.4785C1793.03 -15.007 1811.62 6.97435 1828.57 30.1409C1832.03 34.7115 1835.33 39.4432 1838.47 44.1748H1838.56C1839.91 46.1119 1841.25 48.0754 1842.53 50.0125C1848.9 59.4757 1854.98 69.1438 1860.76 79.0431C1862.26 81.3723 1863.6 83.763 1864.95 86.1654C1876.28 105.891 1886.55 126.362 1895.56 147.442C1903.58 166.035 1910.63 185.167 1916.71 204.661C1934.48 261.282 1944 321.503 1944 383.977V383.977Z" fill="#159DD9"/>
<path d="M1626.28 174.705C1626.28 202.82 1623.08 230.156 1617.07 256.442C1580.85 414.493 1441.84 533.416 1274.11 538.976C1270 539.11 1265.91 539.21 1261.76 539.21C1251.79 539.21 1241.9 538.794 1232.14 538.025C1044.64 522.943 897.23 366.016 897.23 174.705C897.23 84.6289 929.905 2.15771 984.127 -61.4485C999.94 -80.0911 1017.66 -97.1361 1036.93 -112.256C1098.86 -160.83 1176.92 -189.811 1261.76 -189.811C1311.97 -189.811 1359.82 -179.642 1403.33 -161.281C1436.96 -147.112 1468.04 -128.019 1495.6 -104.879C1501.25 -100.22 1506.76 -95.3073 1512.08 -90.2479C1515.6 -86.9677 1519.02 -83.6026 1522.38 -80.1409C1534.56 -67.693 1545.86 -54.3408 1556.16 -40.2601C1558.25 -37.4802 1560.26 -34.6126 1562.17 -31.7479H1562.22C1563.04 -30.5657 1563.86 -29.3718 1564.63 -28.1896C1568.5 -22.4573 1572.19 -16.5698 1575.7 -10.5594C1576.62 -9.14317 1577.43 -7.69178 1578.25 -6.22869C1585.14 5.75398 1591.37 18.1902 1596.85 30.9922C1601.72 42.296 1606 53.9159 1609.7 65.7552C1620.5 100.161 1626.28 136.75 1626.28 174.705V174.705Z" fill="#24B4E9"/>
<path d="M1179.09 109.926C1187.5 102.125 1198.6 101.027 1209.09 99.1986C1216.16 97.9783 1219.08 104.928 1219.33 110.292C1219.41 114.157 1216.77 113.756 1214.1 113.341C1212.82 113.133 1211.54 112.94 1210.55 113.218C1206.41 114.195 1202.87 112.001 1199.21 110.292C1192.99 107.488 1186.9 109.317 1180.92 111.389C1179.58 114.315 1176.04 113.829 1175.56 112.609C1174.58 110.415 1178.36 111.635 1179.09 109.926ZM1198.23 130.532L1197.14 129.069L1199.46 127.849L1200.8 128.946L1198.23 130.532ZM1180.19 158.331C1182.99 146.869 1188.97 140.285 1193.97 133.092C1192.75 142.36 1190.8 151.138 1180.19 158.331ZM1270.54 -68.4477C1267.98 -64.3013 1265.3 -64.0585 1261.76 -67.1075C1264.57 -70.2766 1267.37 -69.1793 1270.54 -68.4477ZM1227.74 124.314C1231.52 122.362 1239.45 118.584 1244.2 126.266C1245.54 128.58 1245.42 131.021 1243.84 130.898C1236.28 130.166 1232.25 135.164 1227.86 139.919C1227.25 140.531 1226.16 140.651 1224.45 141.505L1222.38 139.433C1223.96 134.19 1224.21 126.143 1227.74 124.314ZM1544.51 591.161C1535.12 588.844 1528.53 583.114 1522.32 576.65C1521.09 575.553 1520.62 572.873 1519.64 572.873C1504.52 571.53 1489.89 566.289 1474.4 569.092C1473.43 559.459 1464.65 552.267 1453.43 551.901C1452.02 551.839 1450.52 552.047 1449.02 552.255C1444.29 552.925 1439.52 553.583 1437.58 545.806C1436.98 543.33 1434.66 543.476 1432.31 543.634C1431.3 543.696 1430.29 543.757 1429.41 543.611C1427.58 543.365 1423.68 543.854 1425.02 541.536C1430.14 532.881 1422.95 527.271 1421 520.322C1414.29 497.644 1404.78 490.085 1381.86 490.574C1372.47 490.694 1365.03 487.525 1358.69 480.818C1351.74 473.503 1346.74 464.724 1337.48 459.361C1331.14 455.703 1337.72 450.093 1337.84 445.461C1340.89 445.584 1343.82 444.853 1342.48 441.072C1341.47 438.547 1339.42 438.866 1337.36 439.193C1336.43 439.328 1335.5 439.474 1334.67 439.366C1336.99 449.608 1322.85 441.561 1322.73 449.608C1322.73 450.825 1320.28 452.045 1318.46 450.825C1315.15 448.888 1311.63 449.142 1308.08 449.388C1306.25 449.523 1304.42 449.643 1302.61 449.485C1292 448.387 1281.76 447.413 1273.46 439C1268.1 433.634 1261.03 433.391 1253.96 436.683C1252.86 437.171 1252.25 439.852 1250.42 437.049C1245.06 428.879 1239.93 428.513 1232.74 435.343C1230.55 437.414 1228.11 440.949 1225.79 440.949C1215.06 440.583 1211.28 447.779 1207.14 455.58C1204.94 459.484 1202.62 466.799 1195.31 461.678C1186.77 455.703 1177.87 456.557 1168.73 459.484C1157.76 463.141 1144.82 451.679 1145.68 439.732C1146.17 430.342 1147.62 421.197 1149.7 412.053C1152.27 401.812 1148.49 396.814 1137.76 396.325C1131.89 396.082 1125.8 394.742 1119.83 397.788C1117.38 399.008 1112.76 399.863 1110.45 396.325C1108.86 393.888 1111.29 391.816 1112.26 389.621C1116.79 379.014 1121.16 368.284 1125.8 357.799C1127.88 353.164 1129.47 348.409 1124.21 345.483C1115.69 340.608 1098.13 347.557 1093.97 356.579C1089.22 366.578 1080.45 371.698 1069.84 373.527C1059.47 375.233 1052.77 369.747 1048.14 360.968C1042.4 350.118 1038.99 339.265 1043.38 326.951C1046.54 317.93 1050.21 309.151 1051.92 299.641C1053.02 293.543 1056.66 287.691 1064.11 285.253C1069.59 283.302 1074.84 280.01 1079.59 276.718C1087.14 271.354 1093.49 268.671 1103.36 273.914C1110.56 277.695 1121.41 282.693 1128.25 269.648C1130.69 265.379 1136.16 263.796 1142.5 266.11C1147.87 268.062 1152.88 271.843 1159.46 271.231C1168.85 270.38 1173.12 275.866 1172.39 285.01C1171.78 292.935 1174.22 300.007 1176.65 307.323C1177.99 311.466 1180.55 313.784 1185.31 314.272C1190.43 314.881 1191.41 311.346 1192.99 308.174C1196.04 302.202 1195.31 295.984 1194.21 289.52C1191.65 276.352 1187.75 262.453 1200.8 252.091C1209.21 245.627 1217.5 238.677 1227.01 234.411C1243.84 226.607 1253.96 216.123 1249.69 195.396C1255.17 197.957 1257.25 197.957 1259.56 191.982C1262.61 184.058 1273.83 183.08 1278.58 176.985C1284.56 169.427 1291.63 166.62 1300.17 164.426C1307.48 162.477 1314.92 160.037 1316.02 150.527C1316.38 147.846 1318.34 146.869 1320.65 145.894C1331.02 141.262 1341.26 136.384 1354.18 130.289C1350.28 135.776 1349.43 139.433 1352.35 142.36C1355.4 145.406 1359.67 144.92 1362.84 143.211C1372.72 137.725 1382.96 133.581 1393.81 130.532C1397.83 129.435 1403.08 126.997 1401.74 121.753C1400.78 118.497 1398.06 118.912 1395.31 119.328C1393.85 119.547 1392.36 119.778 1391.13 119.436L1389.18 119.559C1382.96 120.779 1378.69 118.096 1375.4 113.218C1371.86 107.977 1377.71 106.757 1379.67 103.954C1381.98 100.539 1384.91 97.0039 1383.32 92.9804C1382.16 90.0045 1379.67 90.3352 1377.1 90.6629C1375.9 90.8209 1374.67 90.9789 1373.57 90.7858C1371.86 90.42 1369.91 90.7858 1367.84 90.7858C1368.45 88.1025 1369.67 87.0052 1371.49 86.6394C1380.03 85.2992 1387.84 81.5186 1397.47 84.2019C1410.51 87.6138 1423.32 80.4213 1439.17 78.5924C1431.61 86.2737 1425.88 92.8575 1419.17 98.3441C1416.98 100.296 1416.49 101.636 1416.37 103.954C1416.37 106.025 1417.1 107 1419.29 107.123C1432.22 107.854 1445.14 111.755 1458.19 107.488C1462.09 106.391 1467.7 108.343 1467.58 101.27C1467.58 95.295 1464.4 90.7858 1458.8 89.4427C1452.7 87.9796 1449.77 86.1508 1453.19 79.4469C1455.26 75.4234 1450.87 74.3261 1447.34 73.4716C1450.99 71.277 1453.8 70.1797 1455.99 68.3508C1461.24 64.0845 1465.26 58.7179 1463.31 51.7682C1461.48 45.0644 1455.51 45.3072 1450.02 45.5501C1446.12 45.9159 1444.65 43.967 1442.82 40.4293C1436.6 28.8475 1436.24 16.1684 1434.9 3.73218C1433.92 -5.77788 1428.8 -8.58408 1421.12 -2.85171C1416.73 0.560206 1412.46 4.21792 1407.34 6.90122C1404.78 8.24141 1402.59 9.82739 1400.15 7.75566C1398.08 5.92681 1395.88 4.46372 1397.59 0.194435C1398.93 -3.21748 1399.05 -8.09541 1396.37 -12.3618C1389.54 -22.9691 1357.84 -27.3584 1349.79 -21.629C1347.72 -20.043 1345.52 -18.5799 1344.67 -15.6537C1340.77 -2.97461 1323.58 3.00063 1327.23 20.1919C1327.85 23.3609 1321.99 31.285 1315.04 33.6025C1311.02 34.8228 1307.61 37.7489 1303.58 39.4549C1297.85 41.6495 1294.68 45.3072 1293.1 51.5254C1291.75 57.0119 1290.78 63.7187 1285.17 67.0107C1282.97 68.2279 1280.41 72.2514 1277.37 69.2053C1274.68 66.522 1271.52 63.1071 1273.46 58.7179C1275.05 55.4259 1276.15 51.8911 1277.49 48.7221C1280.54 41.6495 1280.54 37.8689 1271.52 36.6516C1265.54 35.7972 1259.81 33.2368 1254.44 29.5791C1250.05 26.53 1245.18 22.9952 1239.2 23.1181C1228.6 23.238 1224.21 14.9482 1222.25 7.38989C1220.55 0.440233 1228.96 -2.12017 1233.35 -6.50943C1244.81 -17.6055 1263.59 -16.751 1272.86 -31.0161C1273.46 -31.8706 1275.42 -32.2363 1276.64 -32.2363C1286.51 -31.3819 1295.41 -36.3827 1305.17 -37.48C1304.8 -25.5296 1313.7 -29.7988 1319.07 -31.0161C1323.33 -31.9935 1326.63 -32.2363 1330.41 -30.2846C1334.67 -27.97 1340.04 -25.4096 1342.23 -31.7477C1343.94 -37.1143 1344.06 -43.4524 1336.38 -45.647C1331.38 -47.233 1326.5 -49.3047 1319.8 -48.6961C1326.5 -52.5967 1326.5 -52.5967 1342.11 -52.7196C1353.21 -52.8425 1365.4 -60.1579 1368.81 -70.2766C1370.4 -75.2745 1371.13 -81.4926 1362.11 -81.4926C1352.47 -81.6155 1343.09 -82.5899 1336.75 -72.7141C1334.8 -69.545 1331.14 -67.7162 1326.87 -67.3504C1329.43 -74.7887 1329.31 -79.9095 1319.8 -79.4209C1315.78 -79.298 1313.33 -81.0069 1314.92 -85.5161C1318.7 -95.6377 1315.04 -99.7812 1303.82 -97.8324C1305.65 -101.49 1307.12 -104.416 1308.58 -107.22C1307.97 -98.441 1314.43 -98.0752 1318.82 -100.147C1327.23 -104.05 1336.26 -103.073 1344.55 -106.122C1346.01 -114.046 1342.72 -116.972 1334.55 -116.487C1327.48 -116.121 1320.77 -114.658 1314.19 -112.463C1312.97 -111.975 1310.9 -109.537 1310.29 -111.609C1308.31 -118.228 1304.83 -117.034 1301.23 -115.828C1299.72 -115.328 1298.19 -114.828 1296.75 -114.901C1292.78 -115.132 1289.57 -113.218 1286.39 -111.304C1282.74 -109.11 1279.14 -106.903 1274.44 -107.951C1272.61 -108.317 1269.32 -109.537 1268.83 -105.634C1268.59 -102.83 1270.42 -101.49 1272.25 -99.9041C1277.98 -94.7833 1284.8 -92.5887 1292.61 -92.9544C1290.29 -91.3684 1286.51 -90.394 1286.51 -89.4196C1286.15 -80.6411 1280.29 -83.4444 1275.42 -83.4444C1262.74 -83.5673 1260.42 -81.3726 1260.78 -69.1793C1257.08 -69.4368 1253.32 -69.1793 1249.53 -68.9101C1240.96 -68.3131 1232.22 -67.7045 1223.6 -73.2028C1234.08 -72.7141 1243.23 -73.8114 1251.52 -79.178C1258.22 -83.4444 1258.83 -86.8592 1251.88 -90.8827C1248.35 -92.8315 1247.74 -93.9288 1250.18 -97.3437C1252.61 -101.001 1254.81 -106.977 1251.27 -109.171C1247.25 -111.486 1240.79 -112.097 1236.28 -107.462C1234.69 -105.879 1233.72 -102.464 1231.16 -107.342C1229.08 -111.732 1224.57 -111 1220.67 -108.317C1214.82 -104.293 1208.72 -106.122 1204.45 -110.389C1196.28 -118.436 1185.92 -118.924 1176.04 -120.264C1157.76 -122.582 1144.58 -110.023 1129.58 -102.953C1126.53 -101.367 1126.91 -97.9523 1127.64 -95.5148C1128.49 -92.7116 1130.69 -90.0283 1134.1 -89.7854C1138.37 -89.2967 1142.64 -89.6625 1146.65 -91.8571C1153.24 -95.3919 1159.83 -98.441 1167.51 -94.7833C1166.8 -93.6245 1165.35 -93.6977 1163.94 -93.7708C1161.95 -93.882 1160.02 -93.9903 1160.32 -90.6369C1160.66 -86.5168 1163.11 -86.9909 1165.51 -87.4561C1166.52 -87.6639 1167.53 -87.857 1168.36 -87.7107C1171.9 -87.1021 1175.8 -87.5908 1179.46 -87.5908C1173.73 -85.5161 1167.87 -85.7619 1162.14 -85.3961C1160.07 -85.3961 1157.02 -87.1021 1156.29 -83.4444C1155.56 -80.3953 1157.39 -78.8122 1160.07 -77.2262C1166.9 -73.6914 1173.73 -70.3995 1181.65 -70.0337C1178.85 -69.1793 1176.16 -68.8135 1173.48 -69.1793C1171.98 -69.4104 1170.05 -68.4858 1168.11 -67.5699C1163.73 -65.5099 1159.33 -63.4498 1159.83 -74.423L1158.12 -75.2745C1149.7 -74.1772 1143.12 -79.7866 1135.43 -81.7384C1130.66 -82.9557 1125.67 -82.7626 1120.82 -82.5665C1115.02 -82.3471 1109.37 -82.1042 1104.46 -84.2988C1091.3 -90.0283 1079.59 -85.0303 1067.39 -83.933C1054.59 -82.7128 1042.4 -74.9087 1029.36 -77.592C1010.94 -81.4926 992.297 -84.7846 974.008 -88.3223C942.184 -63.4498 913.044 -35.4054 887.073 -4.68057L888.656 -4.3148C903.654 -0.779981 914.507 9.46162 928.527 13.9738C930.101 14.5824 932.797 16.5342 932.419 19.4604L930.344 20.9234C926.809 21.655 927.052 19.2146 926.212 16.9C925.235 13.3622 921.7 14.5824 919.382 15.314C915.359 16.9 916.336 20.8005 916.336 24.2154C916.444 28.9704 920.48 27.6273 922.297 26.8958C926.455 25.5556 931.333 26.2871 932.065 29.2133C933.162 32.5052 936.209 37.626 931.199 40.918V41.0409C928.773 51.5254 925.589 62.0098 928.15 72.983C928.638 75.1776 928.15 76.3978 925.967 76.2749C921.943 76.2749 918.408 76.7636 918.285 82.1273C918.285 87.371 919.979 91.2716 924.261 95.0522C929.613 99.6843 936.209 98.3441 942.781 99.5643C940.964 102.125 940.112 102.125 938.16 101.513C929.747 98.9528 923.517 101.393 920.36 110.415C913.884 129.192 897.558 141.382 888.525 159.062C882.318 171.133 878.891 181.131 880.732 194.299C881.94 202.832 885.121 211.002 885.475 219.657C885.61 226.487 888.171 231.119 894.389 233.802C902.179 237.214 905.117 243.313 904.142 251.845C903.168 259.526 903.654 267.331 908.274 274.037C911.081 277.938 911.824 281.596 910.484 286.716C909.006 291.96 909.752 297.567 916.202 300.982C920.603 303.419 923.274 307.688 922.54 313.784C921.7 322.073 928.773 326.586 933.405 331.949C934.98 333.658 939.746 333.778 942.061 331.829C944.124 330 943.159 326.828 941.818 324.268C938.16 317.318 934.248 310.369 933.894 302.202C933.405 291.714 928.395 282.693 923.895 273.549C922.297 270.257 921.334 266.722 920.48 263.184C919.736 260.624 920.968 258.309 923.274 257.212C926.212 255.749 927.175 258.918 928.881 260.258C930.968 261.601 930.344 263.796 930.71 265.745C934.625 286.839 944.853 304.762 957.547 321.708C964.863 331.583 973.765 341.339 967.777 355.724C965.703 360.479 967.912 365.357 972.179 369.381C986.067 382.426 1003.87 388.158 1020.46 396.082C1029.12 400.349 1037.65 405.715 1047.65 400.229C1055.46 395.959 1061.55 399.374 1065.81 405.469C1075.44 419.126 1088.85 424.612 1104.95 424.735C1108.48 424.855 1110.32 426.198 1111.18 429.976C1112.88 438.755 1118.85 446.559 1123.24 452.9C1132.62 466.433 1148.35 474.6 1165.31 478.015C1169.58 478.869 1173.24 478.504 1172.75 472.04C1172.39 468.016 1177.38 466.676 1180.07 466.676C1182.87 466.676 1185.8 469.359 1184.82 473.626C1183.85 478.381 1187.14 481.796 1188.72 485.819C1193.24 497.035 1192.75 507.765 1185.19 517.884C1176.78 528.857 1167.02 539.099 1162.02 552.39C1159.83 558.242 1157.76 564.826 1162.75 569.092C1166.41 572.261 1166.17 572.75 1163.73 576.285C1154.83 589.452 1156.41 599.208 1168.61 610.547C1172.14 613.716 1174.34 617.74 1176.78 621.763C1181.77 630.299 1183.97 640.175 1188.48 649.073C1190.19 652.488 1192.26 655.903 1194.94 658.949C1197.87 662.241 1202.14 664.801 1203.48 669.922C1207.62 684.799 1217.99 692.846 1231.76 699.915C1251.52 710.037 1267 724.788 1267.37 749.906C1267.61 758.439 1262 766.852 1265.05 774.779C1269.44 786.36 1265.42 797.699 1266.76 809.038C1267 811.599 1267.73 814.402 1267.86 816.842C1268.83 832.936 1273.95 848.299 1274.93 864.27C1275.9 879.998 1270.78 895.36 1276.15 911.82C1279.44 921.465 1280.78 930.609 1288.71 937.802C1295.9 944.497 1294.56 955.47 1299.43 963.637C1300.9 966.443 1298.09 968.649 1294.93 970.235C1289.8 972.781 1289.19 978.39 1293.58 980.951L1295.29 982.06C1301.88 982.537 1308.58 983.023 1315.41 983.268C1324.8 983.754 1334.43 984 1344.06 984C1350.77 984 1357.59 983.754 1364.3 983.634C1362.6 981.317 1360.04 978.513 1356.74 975.221C1353.57 971.93 1352.72 968.149 1355.89 966.443C1363.94 961.931 1359.3 953.41 1363.57 947.543C1370.64 937.913 1356.86 937.547 1355.03 931.572L1355.52 929.62C1369.79 932.792 1375.4 928.657 1373.08 915.601C1371.86 909.017 1374.06 908.285 1379.18 908.528C1381.86 908.651 1384.79 909.017 1387.35 908.405C1399.66 906.211 1410.51 897.555 1404.66 882.435C1403.08 878.169 1397.59 875.366 1399.54 869.756C1414.54 874.877 1421.12 872.56 1429.9 859.026C1435.14 851.102 1440.63 843.178 1445.63 835.008C1448.92 829.644 1446.73 822.938 1450.87 817.208C1456.97 809.161 1459.53 799.405 1455.87 789.164C1455.14 786.849 1455.02 784.654 1457.21 782.826C1468.43 772.95 1480.38 763.56 1495.97 763.194C1505.01 763.074 1509.87 758.685 1512.81 751.612C1522.81 727.96 1530.25 703.696 1525.11 677.483C1524.52 674.311 1525.98 671.508 1527.44 670.168C1536.95 661.389 1540.49 648.222 1549.51 639.563C1556.46 632.859 1557.8 624.566 1559.63 616.519C1562.44 604.206 1556.34 594.33 1544.51 591.161V591.161ZM1344.55 -106.122V-105.879L1344.79 -105.999L1344.92 -106.245L1344.55 -106.122ZM1334.55 439L1334.31 439.366H1334.67L1334.55 439Z" fill="#AED141"/>
<path d="M1315.41 983.269C1308.58 983.023 1301.87 982.537 1295.29 982.06L1293.58 980.951C1289.19 978.391 1289.8 972.781 1294.92 970.235C1298.09 968.649 1300.9 966.443 1299.43 963.637C1294.56 955.47 1295.9 944.497 1288.7 937.802C1280.78 930.609 1279.44 921.465 1276.14 911.82C1270.78 895.36 1275.9 879.998 1274.92 864.27C1273.95 848.299 1268.83 832.936 1267.85 816.843C1267.73 814.402 1267 811.599 1266.76 809.038C1265.41 797.699 1269.44 786.361 1265.05 774.779C1262 766.852 1267.61 758.439 1267.37 749.906C1267 724.788 1251.51 710.037 1231.76 699.916C1217.98 692.846 1207.62 684.799 1203.48 669.922C1202.13 664.801 1197.87 662.241 1194.94 658.949C1192.26 655.903 1190.18 652.488 1188.48 649.073C1190.31 650.051 1192.01 650.902 1193.6 651.514C1209.08 657.486 1220.06 655.171 1235.67 656.512C1266.03 659.195 1291.26 698.087 1291.02 729.3C1291.02 744.42 1284.31 758.928 1285.05 774.047C1285.41 784.532 1289.44 794.65 1290.78 805.138C1294.19 832.571 1275.78 868.782 1291.26 894.386C1294.43 899.627 1299.31 903.896 1302.24 909.383C1306.87 917.55 1306.75 927.56 1307.36 936.936C1308.46 952.544 1311.99 967.918 1315.41 983.269Z" fill="#FBE55B"/>
<path d="M1171.55 330.62C1188.31 329.854 1201.51 333.804 1213.22 343.302C1216.89 346.302 1221.57 348.189 1226.55 349.447C1229.8 350.276 1234.46 351.627 1234.09 357.407C1233.68 363.759 1227.46 362.735 1225.24 362.835C1215.91 363.224 1205.87 363.601 1197.44 360.394C1193.99 359.077 1190.24 352.336 1185.75 348.532C1176.99 341.07 1167.82 338.705 1157.27 343.13C1153.17 344.85 1148.46 347.581 1146.17 342.46C1143.46 336.438 1149.71 334.948 1153.65 332.607C1159.97 328.841 1166.88 331.402 1171.55 330.62V330.62Z" fill="#AED141"/>
<path d="M1251.53 361.372C1260.91 361.03 1269.12 360.98 1276.1 367.017C1280.31 370.637 1281.19 372.966 1275.37 375.711C1259.89 382.988 1243.69 380.478 1227.66 379.392C1225.58 379.257 1221.21 378.491 1221.75 374.125C1222.3 369.662 1225.93 371.819 1228.16 371.614C1233.14 371.149 1238.07 373.393 1238.74 364.187C1239.23 357.737 1247.91 363.213 1251.53 361.372H1251.53Z" fill="#AED141"/>
<path d="M1210.88 293.886C1212.9 294.729 1218 291.387 1219.28 295.946C1220.48 300.215 1221.66 305.956 1213.88 307.296C1212.8 307.493 1208.09 310.992 1209.18 315.698C1209.67 317.831 1211.47 322.062 1206.01 322.404C1201.49 322.671 1198.62 320.087 1197.49 316.672C1196.55 313.834 1195.44 309.456 1199.01 307.419C1202.59 305.395 1200.6 304.871 1199.66 302.164C1196.31 292.473 1203.46 293.204 1210.88 293.886V293.886Z" fill="#AED141"/>
<path d="M1334.59 439.024C1327.75 440.256 1325.88 435.77 1329.33 431.831C1334.22 426.272 1334.87 418.907 1339.72 413.224C1343.01 409.373 1339.5 403.398 1334.37 400.118C1332.16 398.704 1328.12 399.178 1328.25 394.827C1328.32 392.486 1329.69 391.632 1331.43 392.12C1335.21 393.18 1339.87 389.144 1342.99 394.85C1345.55 399.544 1343.81 405.373 1348.47 409.762C1350.83 411.98 1344.47 414.263 1344.32 414.906C1342.25 423.612 1333.94 429.757 1334.3 439.305L1334.59 439.024V439.024Z" fill="#AED141"/>
<path d="M1292.97 371.526C1300.09 367.771 1299.32 379.707 1305.57 378.929C1305.48 380.22 1305.84 381.879 1305.17 382.707L1301.69 383.646C1298.66 381.817 1295.41 382.025 1292.15 381.648C1288.66 381.244 1282.62 384.767 1283.12 376.611C1283.44 371.417 1283.19 371.406 1292.97 371.526Z" fill="#AED141"/>
<path d="M1202.68 381.721C1199.71 381.721 1197.25 382.122 1194.97 381.633C1191.26 380.817 1190.81 377.771 1190.92 374.467C1191.05 370.478 1194 371.76 1196.09 371.552C1197.77 371.394 1199.49 371.467 1201.18 371.538C1205.78 371.745 1211.29 371.321 1211.31 377.94C1211.31 385.476 1204.94 379.831 1202.68 381.721V381.721Z" fill="#AED141"/>
<path d="M931.198 40.907C927.479 43.2714 923.54 45.7968 919.651 41.6883C917.126 39.0283 917.784 35.2739 918.908 32.2364C920.421 28.1659 924.722 28.4585 927.576 29.4447C933.674 31.5428 929.1 37.4452 930.856 41.2465L931.198 40.907V40.907Z" fill="#AED141"/>
<path d="M1326.48 379.611C1329.92 379.831 1331.67 379.38 1332.32 381.695C1334.26 388.633 1325.44 388.378 1324.08 393.815C1323.61 395.644 1318.52 391.755 1316.52 389.095C1315.53 387.778 1315.79 384.475 1316.69 384.659C1321.88 385.671 1325.08 382.853 1326.48 379.611Z" fill="#AED141"/>
<path d="M1231.83 346.873C1229.85 346.179 1225.44 348.874 1225.88 343.449C1226.25 338.998 1229.62 338.705 1233.22 338.679C1236.22 338.656 1238.13 338.913 1238.2 342.826C1238.29 347.85 1235.09 346.887 1231.83 346.873V346.873Z" fill="#AED141"/>
<path d="M1313.86 374.186C1313.83 373.586 1313.68 371.125 1317.32 371.552C1320.43 371.93 1322.1 373.709 1322.07 376.793C1322.04 378.868 1323.09 381.856 1319.22 381.745C1315.57 381.648 1313.93 379.538 1313.86 374.186Z" fill="#AED141"/>
<path d="M1337.97 387.901C1334.66 388.316 1334.44 386.256 1334.37 383.611C1334.28 380.524 1335.61 379.769 1338.49 379.634C1342.39 379.464 1342.64 381.524 1342.68 384.547C1342.73 388.193 1340.45 387.986 1337.97 387.901V387.901Z" fill="#AED141"/>
<path d="M1356.68 428.879C1353.49 429.318 1352.94 427.577 1352.79 424.797C1352.59 420.82 1354.8 420.711 1357.75 420.662C1361.44 420.612 1360.92 423.038 1361.09 425.344C1361.33 428.77 1359.32 429.16 1356.68 428.879V428.879Z" fill="#AED141"/>
<path d="M1364.26 983.585C1362.56 981.282 1360.01 978.487 1356.74 975.222C1353.57 971.93 1352.72 968.149 1355.89 966.443C1363.93 961.931 1359.3 953.41 1363.57 947.543C1370.64 937.913 1356.86 937.547 1355.03 931.572L1355.52 929.62C1358.54 930.293 1361.18 930.633 1363.42 930.633C1371.81 930.633 1374.91 925.878 1373.08 915.601C1371.98 909.687 1373.65 908.493 1377.71 908.493C1378.16 908.493 1378.65 908.505 1379.17 908.528C1380.71 908.601 1382.32 908.748 1383.91 908.748C1385.09 908.748 1386.25 908.663 1387.34 908.405C1399.66 906.211 1410.51 897.555 1404.66 882.436C1403.07 878.169 1397.59 875.366 1399.54 869.756C1404.32 871.378 1408.24 872.255 1411.66 872.255C1418.95 872.255 1423.91 868.244 1429.9 859.026C1435.14 851.102 1440.63 843.178 1445.63 835.008C1448.92 829.644 1446.72 822.938 1450.87 817.208C1456.97 809.161 1459.53 799.405 1455.87 789.164C1455.14 786.849 1455.01 784.655 1457.21 782.826C1460.83 779.63 1464.54 776.496 1468.41 773.693C1615.05 729.324 1737.95 630.311 1813.46 500.377C1814.9 500.073 1816.35 499.877 1817.79 499.877C1819.53 499.877 1821.24 500.157 1822.87 500.816C1826.17 502.191 1829.34 502.73 1832.41 502.73C1839.13 502.73 1845.46 500.181 1851.89 498.255C1859.7 495.815 1867.26 492.403 1875.06 489.843C1877.06 489.158 1879.2 488.83 1881.38 488.83C1888.48 488.83 1895.71 492.391 1897.86 498.741C1899.92 505.24 1903.17 506.996 1907.22 506.996C1909.42 506.996 1911.83 506.484 1914.44 505.937C1915.48 505.691 1916.43 505.571 1917.28 505.571C1921.56 505.571 1923.55 508.532 1922.73 513.618C1922.22 516.471 1922.73 519.336 1925.43 519.336C1925.94 519.336 1926.55 519.224 1927.25 518.982L1928.83 518.493C1938.71 475.212 1943.95 430.222 1943.95 384.012C1943.95 369.504 1943.46 355.116 1942.37 340.974C1939.69 302.653 1933.4 265.367 1923.88 229.402C1937.03 278.719 1944 330.524 1944 383.977C1944 430.257 1938.75 475.247 1928.86 518.531C1869.22 778.691 1640.4 974.44 1364.32 983.585H1364.26V983.585ZM1915.65 535.465C1915.48 535.465 1915.31 535.465 1915.13 535.479C1912.86 535.637 1910.32 535.002 1910.35 538.698C1910.37 541.428 1910.28 543.769 1913.87 543.769C1914.02 543.769 1914.17 543.769 1914.35 543.757C1917.04 543.623 1918.98 543.292 1918.55 540.027C1918.71 537.624 1918.66 535.465 1915.65 535.465V535.465ZM1318.38 983.427C1316.93 983.365 1315.48 983.292 1314.03 983.219C1314.48 983.231 1314.94 983.269 1315.41 983.269C1316.39 983.315 1317.38 983.365 1318.38 983.427V983.427ZM1907.09 205.992H1906.99C1904.41 205.992 1901.88 205.7 1899.48 205.15C1899.37 205.126 1899.26 205.1 1899.15 205.076C1899.09 205.065 1899.02 205.041 1898.96 205.027C1898.8 204.991 1898.64 204.953 1898.48 204.918C1898.42 204.907 1898.36 204.892 1898.3 204.88C1896.96 204.576 1895.63 204.333 1894.32 204.137C1894.34 202.554 1894.34 200.968 1894.34 199.37C1894.34 181.998 1893.53 164.806 1892.07 147.808C1892.85 147.565 1893.73 147.431 1894.63 147.431C1894.93 147.431 1895.24 147.442 1895.55 147.481C1895.26 146.81 1894.97 146.152 1894.69 145.479C1894.89 145.918 1895.08 146.357 1895.28 146.81C1895.37 147.015 1895.46 147.235 1895.56 147.442C1898.92 155.258 1902.12 163.159 1905.15 171.144C1909.32 182.167 1913.18 193.348 1916.7 204.661V204.675C1916.58 204.711 1916.44 204.749 1916.32 204.784H1916.28C1913.16 205.6 1910.08 205.992 1907.09 205.992V205.992Z" fill="#1482B9"/>
<path d="M1295.25 982.013C1294.95 981.999 1294.67 981.964 1294.36 981.952C1294.31 981.926 1294.24 981.926 1294.19 981.926C1293.97 981.902 1293.7 981.879 1293.48 981.867C1293.41 981.852 1293.34 981.852 1293.26 981.841C1293.03 981.841 1292.81 981.806 1292.59 981.794C1292.5 981.794 1292.46 981.794 1292.38 981.768C1292.14 981.756 1291.94 981.744 1291.72 981.721C1291.62 981.706 1291.54 981.694 1291.46 981.694C1291.25 981.683 1291.02 981.659 1290.82 981.633H1290.6C1290.39 981.598 1290.14 981.586 1289.94 981.56C1289.86 981.548 1289.76 981.548 1289.7 981.536C1289.47 981.525 1289.26 981.501 1289.03 981.475H1288.83C1288.61 981.44 1288.36 981.428 1288.14 981.39C1288.07 981.39 1288.01 981.378 1287.95 981.378C1287.72 981.355 1287.45 981.329 1287.23 981.317C1287.18 981.317 1287.12 981.317 1287.07 981.294C1286.8 981.267 1286.56 981.244 1286.3 981.22H1286.19C1267.31 979.403 1248.66 976.72 1230.33 973.22C1230.31 973.197 1230.3 973.197 1230.28 973.197C1230.02 973.147 1229.74 973.089 1229.48 973.039C1229.45 973.039 1229.37 973.027 1229.35 973.015C1229.11 972.977 1228.87 972.928 1228.63 972.881C1228.57 972.869 1228.51 972.854 1228.45 972.854C1228.23 972.808 1228.02 972.758 1227.8 972.723C1227.72 972.696 1227.63 972.696 1227.55 972.661C1227.36 972.623 1227.14 972.6 1226.96 972.55C1226.86 972.538 1226.78 972.515 1226.67 972.489C1226.48 972.454 1226.31 972.416 1226.13 972.392C1226.01 972.38 1225.92 972.342 1225.8 972.331C1225.64 972.284 1225.45 972.246 1225.29 972.234C1225.17 972.196 1225.07 972.173 1224.95 972.149C1224.78 972.123 1224.63 972.088 1224.47 972.05C1224.34 972.026 1224.22 972.015 1224.08 971.977C1223.93 971.941 1223.79 971.918 1223.64 971.88C1223.51 971.857 1223.38 971.83 1223.24 971.807C1223.1 971.772 1222.96 971.757 1222.81 971.71C1222.68 971.699 1222.52 971.661 1222.39 971.625C1222.24 971.599 1222.16 971.576 1222.01 971.552C1221.85 971.514 1221.69 971.491 1221.55 971.453C1221.49 971.441 1221.41 971.441 1221.36 971.418C1220.33 971.198 1219.34 970.991 1218.32 970.771H1218.28C1218.04 970.71 1217.78 970.66 1217.54 970.613C1217.51 970.601 1217.47 970.601 1217.46 970.601C1217.2 970.552 1216.97 970.49 1216.72 970.44C1216.69 970.44 1216.67 970.417 1216.65 970.417C1216.39 970.356 1216.17 970.332 1215.93 970.259C1215.9 970.259 1215.84 970.247 1215.83 970.236C1215.57 970.186 1215.33 970.124 1215.07 970.075H1215.04C1214.77 970.016 1214.51 969.966 1214.24 969.893C964.861 914.905 773.81 704.794 747.23 445.974C834.957 640.272 1023.09 779.508 1245.59 797.407C1252.57 797.957 1259.58 798.396 1266.64 798.724C1266.54 800.383 1266.47 802.054 1266.47 803.722C1266.47 805.492 1266.55 807.271 1266.76 809.038C1267 811.599 1267.73 814.402 1267.86 816.843C1268.83 832.937 1273.95 848.299 1274.93 864.27C1275.01 865.683 1275.06 867.1 1275.06 868.501C1275.06 877.195 1273.65 885.815 1273.66 894.617C1273.66 900.262 1274.23 905.968 1276.15 911.82C1279.44 921.465 1280.78 930.609 1288.71 937.802C1295.9 944.497 1294.56 955.47 1299.43 963.637C1299.71 964.164 1299.84 964.661 1299.84 965.15C1299.84 967.248 1297.5 968.93 1294.92 970.236C1292.11 971.649 1290.65 973.966 1290.64 976.22C1290.64 978.037 1291.61 979.792 1293.58 980.951L1295.24 982.013" fill="#1482B9"/>
</g>
<defs>
<clipPath id="clip0_308_4">
<rect width="1488" height="768" fill="white"/>
</clipPath>
</defs>
</svg>
