<svg viewBox="0 0 320 224" fill="none" xmlns="http://www.w3.org/2000/svg">
<rect x="2" y="2" width="316" height="220" rx="14" stroke="#E4E4E7" stroke-width="4"/>
<rect x="32" y="32" width="160" height="12" rx="6" fill="#E4E4E7"/>
<rect x="248" y="32" width="40" height="12" rx="6" fill="#E4E4E7"/>
<rect x="32" y="68" width="122" height="124" rx="6" fill="#E4E4E7"/>
<rect x="166" y="68" width="122" height="80" rx="6" fill="#E4E4E7"/>
<rect x="166" y="160" width="122" height="32" rx="6" fill="#E4E4E7"/>
<rect x="114" y="86" width="91" height="51" rx="12" fill="#007AFF"/>
<path d="M130.023 123V99.7273H139.205C140.97 99.7273 142.473 100.064 143.716 100.739C144.958 101.405 145.905 102.333 146.557 103.523C147.216 104.705 147.545 106.068 147.545 107.614C147.545 109.159 147.212 110.523 146.545 111.705C145.879 112.886 144.913 113.807 143.648 114.466C142.39 115.125 140.867 115.455 139.08 115.455H133.227V111.511H138.284C139.231 111.511 140.011 111.348 140.625 111.023C141.246 110.689 141.708 110.231 142.011 109.648C142.322 109.057 142.477 108.379 142.477 107.614C142.477 106.841 142.322 106.167 142.011 105.591C141.708 105.008 141.246 104.557 140.625 104.239C140.004 103.913 139.216 103.75 138.261 103.75H134.943V123H130.023ZM150.741 123V99.7273H159.923C161.681 99.7273 163.181 100.042 164.423 100.67C165.673 101.292 166.624 102.174 167.276 103.318C167.935 104.455 168.264 105.792 168.264 107.33C168.264 108.875 167.931 110.205 167.264 111.318C166.598 112.424 165.632 113.273 164.366 113.864C163.109 114.455 161.586 114.75 159.798 114.75H153.651V110.795H159.003C159.942 110.795 160.723 110.667 161.344 110.409C161.965 110.152 162.427 109.765 162.73 109.25C163.041 108.735 163.196 108.095 163.196 107.33C163.196 106.557 163.041 105.905 162.73 105.375C162.427 104.845 161.961 104.443 161.332 104.17C160.711 103.89 159.927 103.75 158.98 103.75H155.662V123H150.741ZM163.31 112.409L169.094 123H163.662L158.003 112.409H163.31ZM193.128 111.364C193.128 113.902 192.647 116.061 191.685 117.841C190.73 119.621 189.427 120.981 187.776 121.92C186.132 122.852 184.283 123.318 182.23 123.318C180.162 123.318 178.306 122.848 176.662 121.909C175.018 120.97 173.719 119.61 172.764 117.83C171.81 116.049 171.332 113.894 171.332 111.364C171.332 108.826 171.81 106.667 172.764 104.886C173.719 103.106 175.018 101.75 176.662 100.818C178.306 99.8788 180.162 99.4091 182.23 99.4091C184.283 99.4091 186.132 99.8788 187.776 100.818C189.427 101.75 190.73 103.106 191.685 104.886C192.647 106.667 193.128 108.826 193.128 111.364ZM188.139 111.364C188.139 109.72 187.893 108.333 187.401 107.205C186.916 106.076 186.23 105.22 185.344 104.636C184.457 104.053 183.42 103.761 182.23 103.761C181.041 103.761 180.003 104.053 179.116 104.636C178.23 105.22 177.541 106.076 177.048 107.205C176.563 108.333 176.321 109.72 176.321 111.364C176.321 113.008 176.563 114.394 177.048 115.523C177.541 116.652 178.23 117.508 179.116 118.091C180.003 118.674 181.041 118.966 182.23 118.966C183.42 118.966 184.457 118.674 185.344 118.091C186.23 117.508 186.916 116.652 187.401 115.523C187.893 114.394 188.139 113.008 188.139 111.364Z" fill="white"/>
</svg>
